<?xml version="1.0" encoding="utf-8"?>
<!-- Generator: Adobe Adobe Illustrator 24.2.0, SVG Export Plug-In . SVG Version: 6.00 Build 0)  -->
<svg version="1.1" xmlns="http://www.w3.org/2000/svg" xmlns:xlink="http://www.w3.org/1999/xlink" x="0px" y="0px"
	 width="170.08px" height="113.39px" viewBox="0 0 170.08 113.39" style="enable-background:new 0 0 170.08 113.39;"
	 xml:space="preserve">
<style type="text/css">
	.st0{fill:none;stroke:#572A1B;stroke-miterlimit:10;}
	.st1{fill:none;stroke:#1F0604;stroke-miterlimit:10;}
	.st2{fill:none;stroke:#1C1B1B;stroke-miterlimit:10;}
	.st3{fill:none;stroke:#19A2F7;stroke-miterlimit:10;}
	.st4{fill:none;stroke:#A65052;stroke-miterlimit:10;}
	.st5{fill:#FFFFFF;stroke:#000000;stroke-miterlimit:10;}
	.st6{font-family:'GreatVibes-Regular';}
	.st7{font-size:15px;}
	.st8{fill:none;stroke:#EBEB83;stroke-miterlimit:10;}
	.st9{fill:#FFEA00;stroke:#000000;stroke-miterlimit:10;}
	.st10{fill:none;stroke:#FFEA00;stroke-miterlimit:10;}
</style>
<g id="레이어_2">
	<polygon class="st0" points="10.22,12.01 90.35,11.95 146.75,12.01 162.08,12.53 159.82,67.09 159.9,111.91 91.51,109.17 
		36.82,110.1 10.48,108.75 8.58,58.2 	"/>
	<g>
		<path class="st1" d="M38.25,31.22c-2.26-1.25-4.11-3.37-5.16-5.89c-0.19-0.45-0.39-0.97-0.82-1.15c-0.26-0.11-0.56-0.07-0.83,0.01
			c-1.62,0.48-2.74,2.15-3.26,3.9c-0.52,1.75-0.55,3.61-0.78,5.43c-0.43,3.47-1.6,6.87-3.59,9.62s-4.83,4.81-7.98,5.47"/>
		<path class="st1" d="M27.47,35.81c-2.62,1.19-4.93,3.05-7.41,4.54s-5.28,2.67-8.1,2.3"/>
		<path class="st1" d="M38.81,31.8c0.72,0.29,1.41,0.69,2.04,1.18c-0.28,1.21-1.55,1.72-2.56,2.32c-0.91,0.55-1.72,1.32-2.34,2.23
			c-0.14,0.2-0.27,0.43-0.28,0.68c-0.01,0.26,0.1,0.5,0.22,0.72c0.46,0.82,1.18,1.65,0.97,2.58c-0.09,0.41-0.36,0.74-0.61,1.06
			c-1.8,2.27-3.37,4.75-4.68,7.39c-0.24,0.49-0.53,1.03-1.03,1.15c-0.49,0.12-1.05-0.6-0.68-0.97"/>
		<path class="st1" d="M40.92,32.71c0.87-0.21,1.79,0.21,2.46,0.86c0.67,0.65,1.13,1.51,1.58,2.35c1.62,3.02,3.23,6.04,4.85,9.06
			c0.61,1.15,1.26,2.34,2.28,3.08s2.51,0.86,3.38-0.08"/>
		<path class="st1" d="M36.68,37.87c2.29,3.39,4.59,6.79,6.88,10.18"/>
		<path class="st1" d="M33.01,47.06c2.23,0.6,4.28,1.95,5.8,3.83"/>
	</g>
	<path class="st2" d="M86.51,11.95c-2.83,5.85-1.9,13.68,2.22,18.5c1.89,2.21,4.3,3.77,6.3,5.86c2,2.08,3.63,5.01,3.19,8.02
		c-0.55,3.83-4.01,6.07-6.74,8.48c-4.02,3.55-7.01,8.52-8.44,14c-0.68,2.59-0.5,6.24,1.85,6.93c1.16,0.34,2.34-0.26,3.47-0.71
		c2.72-1.08,5.82-1.26,8.44,0.07c2.63,1.33,4.64,4.33,4.54,7.54c-0.11,3.49-2.5,6.38-3.17,9.79c-0.95,4.81,2.25,10.14,6.61,11.01
		c6.29,1.25,11.34-5.44,14.88-11.36c3.68-6.16,7.36-12.31,11.04-18.47c1.55-2.59,4.04-5.54,6.63-4.38c2.92,1.31,2.37,6.08,3.77,9.22
		c2,4.48,8.12,4.73,11.73,1.74c3.61-2.98,5.33-7.95,6.87-12.65"/>
	<path class="st2" d="M86.51,11.95c-2.83,5.85-1.9,13.68,2.22,18.5c1.89,2.21,4.3,3.77,6.3,5.86c2,2.08,3.63,5.01,3.19,8.02
		c-0.55,3.83-4.01,6.07-6.74,8.48c-4.02,3.55-7.01,8.52-8.44,14c-0.68,2.59-0.5,6.24,1.85,6.93c1.16,0.34,2.34-0.26,3.47-0.71
		c2.72-1.08,5.82-1.26,8.44,0.07c2.63,1.33,4.64,4.33,4.54,7.54c-0.11,3.49-2.5,6.38-3.17,9.79c-0.95,4.81,2.25,10.14,6.61,11.01
		c6.29,1.25,11.34-5.44,14.88-11.36c3.68-6.16,7.36-12.31,11.04-18.47c1.55-2.59,4.04-5.54,6.63-4.38c2.92,1.31,2.37,6.08,3.77,9.22
		c2,4.48,8.12,4.73,11.73,1.74c3.61-2.98,5.33-7.95,6.87-12.65"/>
	<path class="st2" d="M86.51,11.95c-2.83,5.85-1.9,13.68,2.22,18.5c1.89,2.21,4.3,3.77,6.3,5.86c2,2.08,3.63,5.01,3.19,8.02
		c-0.55,3.83-4.01,6.07-6.74,8.48c-4.02,3.55-7.01,8.52-8.44,14c-0.68,2.59-0.5,6.24,1.85,6.93c1.16,0.34,2.34-0.26,3.47-0.71
		c2.72-1.08,5.82-1.26,8.44,0.07c2.63,1.33,4.64,4.33,4.54,7.54c-0.11,3.49-2.5,6.38-3.17,9.79c-0.95,4.81,2.25,10.14,6.61,11.01
		c6.29,1.25,11.34-5.44,14.88-11.36c3.68-6.16,7.36-12.31,11.04-18.47c1.55-2.59,4.04-5.54,6.63-4.38c2.92,1.31,2.37,6.08,3.77,9.22
		c2,4.48,8.12,4.73,11.73,1.74c3.61-2.98,5.33-7.95,6.87-12.65"/>
	<path class="st2" d="M86.51,11.95c-2.83,5.85-1.9,13.68,2.22,18.5c1.89,2.21,4.3,3.77,6.3,5.86c2,2.08,3.63,5.01,3.19,8.02
		c-0.55,3.83-4.01,6.07-6.74,8.48c-4.02,3.55-7.01,8.52-8.44,14c-0.68,2.59-0.5,6.24,1.85,6.93c1.16,0.34,2.34-0.26,3.47-0.71
		c2.72-1.08,5.82-1.26,8.44,0.07c2.63,1.33,4.64,4.33,4.54,7.54c-0.11,3.49-2.5,6.38-3.17,9.79c-0.95,4.81,2.25,10.14,6.61,11.01
		c6.29,1.25,11.34-5.44,14.88-11.36c3.68-6.16,7.36-12.31,11.04-18.47c1.55-2.59,4.04-5.54,6.63-4.38c2.92,1.31,2.37,6.08,3.77,9.22
		c2,4.48,8.12,4.73,11.73,1.74c3.61-2.98,5.33-7.95,6.87-12.65"/>
	<path class="st3" d="M91.06,16.78c6.52-1.14,13.94,1.73,19.49-1.88"/>
	<path class="st3" d="M92.96,23.38c5.23,0.67,10.45,1.34,15.68,2.01"/>
	<path class="st3" d="M95.85,32.66c3.3-0.23,6.6-0.46,9.91-0.69"/>
	<path class="st3" d="M89.83,59.63c7.31,0.81,14.76,0.41,21.94-1.19"/>
	<path class="st3" d="M95.33,67.58c5,0,10.02,0,14.98,0"/>
	<g>
		<g>
			<g>
				<path class="st4" d="M32.75,92.35c-0.49-1.38-1.64-2.56-2.92-2.47c-0.71,0.05-1.35,0.46-2.01,0.75s-1.45,0.45-2.05,0.02
					c0.98-0.37,1.2-2.07,0.52-2.96s-1.9-1.01-2.85-0.57c-0.47,0.22-0.91,0.56-1.16,1.06c-0.3,0.6-0.3,1.33-0.23,2.02
					c0.09,0.84,0.28,1.66,0.56,2.44c-0.37-1.07-1.16-1.93-2.1-2.29c-0.32-0.12-0.67-0.19-0.99-0.05c-0.57,0.26-0.78,1.06-0.92,1.75
					c-0.28,1.44-0.56,2.95-0.22,4.38c0.34,1.42,1.51,2.7,2.77,2.45l2.13-0.29c0.43,1.16,0.78,2.36,0.69,3.61
					c-0.16,2.32-1.81,4.38-1.5,6.67l3.39-0.76c-0.55-0.62-0.87-1.49-0.96-2.38c-0.11-0.99,0.02-1.99,0.15-2.98
					c0.2-1.48,0.44-2.98,1.01-4.32c0.04-0.08,0.08-0.16,0.12-0.24l2.45-0.34c0.99,0.98,2.45,1.27,3.65,0.72
					c0.26-0.12,0.53-0.28,0.69-0.55c0.22-0.36,0.24-0.83,0.24-1.27C33.23,95.27,33.24,93.73,32.75,92.35z"/>
				<path class="st4" d="M26.04,108.33c-0.04-0.04-0.07-0.08-0.1-0.12C25.95,108.28,25.98,108.33,26.04,108.33z"/>
				<path class="st4" d="M25.93,108.1l-0.08,0.02c0.03,0.03,0.05,0.07,0.08,0.09C25.92,108.18,25.92,108.14,25.93,108.1z"/>
			</g>
		</g>
	</g>
	<g>
		<g>
			<g>
				<path class="st4" d="M77.16,87.83c-0.49-1.38-1.64-2.56-2.92-2.47c-0.71,0.05-1.35,0.46-2.01,0.75
					c-0.66,0.29-1.45,0.45-2.05,0.02c0.98-0.37,1.2-2.07,0.52-2.96s-1.9-1.01-2.85-0.57c-0.47,0.21-0.91,0.56-1.16,1.06
					c-0.3,0.6-0.3,1.33-0.23,2.02c0.09,0.84,0.28,1.66,0.56,2.44c-0.37-1.07-1.16-1.93-2.1-2.29c-0.32-0.12-0.67-0.19-0.99-0.05
					c-0.57,0.26-0.78,1.06-0.92,1.75c-0.28,1.44-0.56,2.95-0.22,4.38c0.34,1.42,1.51,2.7,2.77,2.45l2.13-0.29
					c0.43,1.16,0.78,2.36,0.69,3.61c-0.16,2.32-1.81,4.38-1.5,6.67l3.39-0.76c-0.55-0.62-0.87-1.49-0.96-2.38
					c-0.11-0.99,0.02-1.99,0.15-2.98c0.2-1.48,0.44-2.98,1.01-4.32c0.04-0.08,0.08-0.16,0.12-0.24l2.45-0.34
					c0.99,0.98,2.45,1.27,3.66,0.72c0.26-0.12,0.53-0.28,0.69-0.55c0.22-0.36,0.24-0.83,0.24-1.27
					C77.64,90.75,77.65,89.21,77.16,87.83z"/>
				<path class="st4" d="M70.35,103.58l-0.08,0.02c0.03,0.03,0.05,0.07,0.08,0.09C70.34,103.65,70.33,103.61,70.35,103.58z"/>
				<path class="st4" d="M70.45,103.81c-0.04-0.04-0.07-0.08-0.1-0.12C70.36,103.75,70.39,103.81,70.45,103.81z"/>
			</g>
		</g>
	</g>
	<g>
		<g>
			<g>
				<path class="st4" d="M51.06,75.85c-0.49-1.38-1.64-2.56-2.92-2.47c-0.71,0.05-1.35,0.46-2.01,0.75s-1.45,0.45-2.05,0.02
					c0.98-0.37,1.2-2.07,0.52-2.96s-1.9-1.01-2.85-0.57c-0.47,0.22-0.91,0.56-1.16,1.06c-0.3,0.6-0.3,1.33-0.23,2.02
					c0.09,0.84,0.28,1.66,0.56,2.44c-0.37-1.07-1.16-1.93-2.1-2.29c-0.32-0.12-0.67-0.19-0.99-0.05c-0.57,0.26-0.78,1.06-0.92,1.75
					c-0.28,1.44-0.56,2.95-0.22,4.38c0.34,1.42,1.51,2.7,2.77,2.45l2.13-0.29c0.43,1.16,0.78,2.36,0.69,3.61
					c-0.16,2.32-1.81,4.38-1.5,6.67l3.39-0.76c-0.55-0.62-0.87-1.49-0.96-2.38c-0.11-0.99,0.02-1.99,0.15-2.98
					c0.2-1.48,0.44-2.98,1.01-4.32c0.04-0.08,0.08-0.16,0.12-0.24l2.45-0.34c0.99,0.98,2.45,1.27,3.65,0.72
					c0.26-0.12,0.53-0.28,0.69-0.55c0.22-0.36,0.24-0.83,0.24-1.27C51.55,78.77,51.56,77.23,51.06,75.85z"/>
				<path class="st4" d="M44.25,91.6l-0.08,0.02c0.03,0.03,0.05,0.07,0.08,0.09C44.24,91.68,44.23,91.64,44.25,91.6z"/>
				<path class="st4" d="M44.35,91.83c-0.04-0.04-0.07-0.08-0.1-0.12C44.26,91.78,44.3,91.83,44.35,91.83z"/>
			</g>
		</g>
	</g>
</g>
<g id="레이어_1">
	<polygon class="st5" points="9.58,3.17 27.01,1.07 35.42,3.66 49.51,3.04 57.67,1.81 73.12,3.05 72.75,21.34 54.33,22.83 
		37.02,22.23 27.42,21.7 16.81,22.55 9.71,21.47 	"/>
	<text transform="matrix(1.32 0 0 0.9 17.8287 15.3313)" class="st6 st7">Asadal</text>
</g>
<g id="레이어_3">
	<polygon class="st8" points="62.96,44.95 59.14,53.94 49.08,55.22 58.5,60.75 53.61,71.95 63.07,64.19 71.59,71.34 67.35,58.82 
		75.18,53.91 66.24,53.97 	"/>
</g>
<g id="레이어_4">
	<g>
		<polygon class="st9" points="58.28,58.14 70.16,58.03 72.65,61.19 56.35,61.4 		"/>
		<polygon class="st9" points="56.35,66.19 72.46,66.29 72.65,60.99 56.62,60.99 		"/>
		<polyline class="st9" points="58.65,58.24 56.35,56.2 73.04,56.15 70.35,57.88 		"/>
		<path class="st9" d="M56.31,55.98c-0.26-0.88,1.1-1.69,2.62-1.97c1.52-0.28,3.17-0.19,4.77-0.2c1.35,0,2.7-0.07,4.03,0.05
			c2.27,0.21,4.35,1,5.49,2.11"/>
	</g>
	<path class="st10" d="M50.34,56.01c1.35,0.86,2.7,1.72,4.04,2.57C54.11,58.29,53.85,58,50.34,56.01z"/>
	<path class="st10" d="M53.25,61.32c-1.38-0.25-2.84-0.16-4.17,0.24C49.07,61.41,49.06,61.26,53.25,61.32z"/>
	<path class="st10" d="M75.1,58.79c0.96-0.73,1.99-1.41,3.06-2.03C78.01,56.93,77.73,57.02,75.1,58.79z"/>
	<path class="st10" d="M76.07,61.29c1.45,0.71,2.96,1.34,4.51,1.89C80.33,62.98,80.08,62.76,76.07,61.29z"/>
</g>
</svg>

